<svg width="116" height="23" viewBox="0 0 116 23" fill="none"
                xmlns="http://www.w3.org/2000/svg">
                <path
                    d="M0.256 18V1.2H2.824L10.168 13.464H8.824L16.048 1.2H18.616L18.64 18H15.688L15.664 5.832H16.288L10.144 16.08H8.752L2.512 5.832H3.232V18H0.256ZM23.9459 22.824C23.3219 22.824 22.6979 22.72 22.0739 22.512C21.4499 22.304 20.9299 22.016 20.5139 21.648L21.7139 19.44C22.0179 19.712 22.3619 19.928 22.7459 20.088C23.1299 20.248 23.5219 20.328 23.9219 20.328C24.4659 20.328 24.9059 20.192 25.2419 19.92C25.5779 19.648 25.8899 19.192 26.1779 18.552L26.9219 16.872L27.1619 16.512L32.0099 5.184H34.8899L28.8899 19.032C28.4899 19.992 28.0419 20.752 27.5459 21.312C27.0659 21.872 26.5219 22.264 25.9139 22.488C25.3219 22.712 24.6659 22.824 23.9459 22.824ZM26.5859 18.456L20.8019 5.184H23.9219L28.6259 16.248L26.5859 18.456Z"
                    fill="black" />
                <path
                    d="M49.0137 18.336C47.6377 18.336 46.3097 18.168 45.0297 17.832C43.7657 17.48 42.7337 17.032 41.9337 16.488L43.4937 12.984C44.2457 13.464 45.1097 13.864 46.0857 14.184C47.0777 14.488 48.0617 14.64 49.0377 14.64C49.6937 14.64 50.2217 14.584 50.6217 14.472C51.0217 14.344 51.3097 14.184 51.4857 13.992C51.6777 13.784 51.7737 13.544 51.7737 13.272C51.7737 12.888 51.5977 12.584 51.2457 12.36C50.8937 12.136 50.4377 11.952 49.8777 11.808C49.3177 11.664 48.6937 11.52 48.0057 11.376C47.3337 11.232 46.6537 11.048 45.9657 10.824C45.2937 10.6 44.6777 10.312 44.1177 9.96C43.5577 9.592 43.1017 9.12 42.7497 8.544C42.3977 7.952 42.2217 7.208 42.2217 6.312C42.2217 5.304 42.4937 4.392 43.0377 3.576C43.5977 2.76 44.4297 2.104 45.5337 1.608C46.6377 1.112 48.0137 0.863999 49.6617 0.863999C50.7657 0.863999 51.8457 0.991999 52.9017 1.248C53.9737 1.488 54.9257 1.848 55.7577 2.328L54.2937 5.856C53.4937 5.424 52.7017 5.104 51.9177 4.896C51.1337 4.672 50.3737 4.56 49.6377 4.56C48.9817 4.56 48.4537 4.632 48.0537 4.776C47.6537 4.904 47.3657 5.08 47.1897 5.304C47.0137 5.528 46.9257 5.784 46.9257 6.072C46.9257 6.44 47.0937 6.736 47.4297 6.96C47.7817 7.168 48.2377 7.344 48.7977 7.488C49.3737 7.616 49.9977 7.752 50.6697 7.896C51.3577 8.04 52.0377 8.224 52.7097 8.448C53.3977 8.656 54.0217 8.944 54.5817 9.312C55.1417 9.664 55.5897 10.136 55.9257 10.728C56.2777 11.304 56.4537 12.032 56.4537 12.912C56.4537 13.888 56.1737 14.792 55.6137 15.624C55.0697 16.44 54.2457 17.096 53.1417 17.592C52.0537 18.088 50.6777 18.336 49.0137 18.336ZM64.2408 18.216C62.5768 18.216 61.2808 17.808 60.3528 16.992C59.4248 16.16 58.9608 14.912 58.9608 13.248V2.088H63.5208V13.2C63.5208 13.664 63.6488 14.032 63.9048 14.304C64.1608 14.56 64.4888 14.688 64.8888 14.688C65.4328 14.688 65.8968 14.552 66.2808 14.28L67.4088 17.472C67.0248 17.728 66.5528 17.912 65.9928 18.024C65.4328 18.152 64.8488 18.216 64.2408 18.216ZM57.0648 8.88V5.472H66.4968V8.88H57.0648ZM75.3201 18.216C73.8961 18.216 72.6321 17.928 71.5281 17.352C70.4241 16.776 69.5521 15.984 68.9121 14.976C68.2881 13.952 67.9761 12.784 67.9761 11.472C67.9761 10.16 68.2881 9 68.9121 7.992C69.5521 6.984 70.4241 6.2 71.5281 5.64C72.6321 5.064 73.8961 4.776 75.3201 4.776C76.7441 4.776 78.0081 5.064 79.1121 5.64C80.2321 6.2 81.1041 6.984 81.7281 7.992C82.3521 9 82.6641 10.16 82.6641 11.472C82.6641 12.784 82.3521 13.952 81.7281 14.976C81.1041 15.984 80.2321 16.776 79.1121 17.352C78.0081 17.928 76.7441 18.216 75.3201 18.216ZM75.3201 14.592C75.8481 14.592 76.3121 14.472 76.7121 14.232C77.1281 13.992 77.4561 13.64 77.6961 13.176C77.9361 12.696 78.0561 12.128 78.0561 11.472C78.0561 10.816 77.9361 10.264 77.6961 9.816C77.4561 9.352 77.1281 9 76.7121 8.76C76.3121 8.52 75.8481 8.4 75.3201 8.4C74.8081 8.4 74.3441 8.52 73.9281 8.76C73.5281 9 73.2001 9.352 72.9441 9.816C72.7041 10.264 72.5841 10.816 72.5841 11.472C72.5841 12.128 72.7041 12.696 72.9441 13.176C73.2001 13.64 73.5281 13.992 73.9281 14.232C74.3441 14.472 74.8081 14.592 75.3201 14.592ZM84.7765 18V4.992H89.1205V8.784L88.4725 7.704C88.8565 6.728 89.4805 6 90.3445 5.52C91.2085 5.024 92.2565 4.776 93.4885 4.776V8.88C93.2805 8.848 93.0965 8.832 92.9365 8.832C92.7925 8.816 92.6325 8.808 92.4565 8.808C91.5285 8.808 90.7765 9.064 90.2005 9.576C89.6245 10.072 89.3365 10.888 89.3365 12.024V18H84.7765ZM102.069 18.216C100.533 18.216 99.1891 17.928 98.0371 17.352C96.9011 16.76 96.0131 15.96 95.3731 14.952C94.7491 13.928 94.4371 12.768 94.4371 11.472C94.4371 10.176 94.7411 9.024 95.3491 8.016C95.9731 6.992 96.8291 6.2 97.9171 5.64C99.0051 5.064 100.229 4.776 101.589 4.776C102.869 4.776 104.037 5.04 105.093 5.568C106.149 6.08 106.989 6.84 107.613 7.848C108.237 8.856 108.549 10.08 108.549 11.52C108.549 11.68 108.541 11.864 108.525 12.072C108.509 12.28 108.493 12.472 108.477 12.648H98.1811V10.248H106.053L104.325 10.92C104.341 10.328 104.229 9.816 103.989 9.384C103.765 8.952 103.445 8.616 103.029 8.376C102.629 8.136 102.157 8.016 101.613 8.016C101.069 8.016 100.589 8.136 100.173 8.376C99.7731 8.616 99.4611 8.96 99.2371 9.408C99.0131 9.84 98.9011 10.352 98.9011 10.944V11.64C98.9011 12.28 99.0291 12.832 99.2851 13.296C99.5571 13.76 99.9411 14.12 100.437 14.376C100.933 14.616 101.525 14.736 102.213 14.736C102.853 14.736 103.397 14.648 103.845 14.472C104.309 14.28 104.765 13.992 105.213 13.608L107.613 16.104C106.989 16.792 106.221 17.32 105.309 17.688C104.397 18.04 103.317 18.216 102.069 18.216ZM112.572 18.216C111.804 18.216 111.156 17.96 110.628 17.448C110.1 16.936 109.836 16.288 109.836 15.504C109.836 14.688 110.1 14.04 110.628 13.56C111.156 13.064 111.804 12.816 112.572 12.816C113.34 12.816 113.988 13.064 114.516 13.56C115.044 14.04 115.308 14.688 115.308 15.504C115.308 16.288 115.044 16.936 114.516 17.448C113.988 17.96 113.34 18.216 112.572 18.216Z"
                    fill="#00B3FF" />
            </svg>